<?xml version="1.0" standalone="no"?>
<!DOCTYPE svg PUBLIC "-//W3C//DTD SVG 20010904//EN"
 "http://www.w3.org/TR/2001/REC-SVG-20010904/DTD/svg10.dtd">
<svg version="1.0" xmlns="http://www.w3.org/2000/svg"
 width="1099.000000pt" height="1099.000000pt" viewBox="0 0 1099.000000 1099.000000"
 preserveAspectRatio="xMidYMid meet">
<metadata>
Created by potrace 1.11, written by Peter Selinger 2001-2013
</metadata>
<g transform="translate(0.000000,1099.000000) scale(0.100000,-0.100000)"
fill="#000000" stroke="none">
<path d="M2795 10980 c-3 -5 -15 -10 -25 -10 -29 0 -118 -94 -145 -153 -13
-29 -27 -70 -31 -92 -3 -22 -10 -47 -15 -56 -4 -9 -6 -18 -4 -21 3 -2 0 -33
-6 -69 -10 -57 -12 -136 -7 -269 1 -35 -9 -140 -17 -170 -31 -121 -36 -171
-40 -410 -1 -107 -6 -222 -10 -255 -4 -33 -9 -71 -10 -85 -2 -14 -6 -54 -10
-90 -4 -36 -8 -75 -8 -87 -1 -13 -5 -23 -11 -23 -5 0 -7 -3 -4 -6 4 -3 -2 -34
-12 -70 -10 -35 -19 -65 -18 -67 0 -1 -5 -22 -12 -47 -7 -25 -12 -46 -12 -47
0 -1 -6 -28 -14 -60 -8 -36 -13 -113 -12 -212 1 -125 -6 -241 -17 -281 -1 -3
-7 -25 -14 -50 -7 -25 -18 -51 -23 -57 -6 -7 -8 -13 -5 -13 8 0 -60 -159 -75
-177 -6 -7 -8 -13 -5 -13 3 0 -10 -34 -28 -75 -19 -41 -33 -75 -31 -75 2 0 -2
-24 -8 -52 -6 -29 -9 -78 -5 -108 17 -154 -1 -284 -51 -360 -65 -98 -100 -217
-97 -328 2 -70 -1 -94 -17 -124 -11 -21 -23 -38 -28 -38 -4 0 -8 -7 -8 -15 0
-8 -4 -15 -10 -15 -5 0 -9 -3 -8 -7 1 -5 -5 -22 -15 -39 -19 -38 -37 -109 -43
-179 -2 -27 -10 -73 -18 -102 -8 -28 -11 -54 -8 -57 3 -3 1 -6 -4 -6 -5 0 -10
-8 -11 -17 -1 -10 -11 -52 -22 -93 -12 -41 -23 -88 -26 -105 -3 -16 -8 -37
-10 -45 -6 -22 -16 -79 -20 -124 -3 -21 -7 -46 -9 -55 -5 -15 -7 -28 -20 -106
-3 -16 -7 -55 -11 -85 -3 -30 -7 -70 -10 -88 -5 -36 -70 -232 -92 -274 -7 -16
-11 -28 -8 -28 3 0 -1 -16 -9 -35 -8 -19 -13 -35 -11 -35 2 0 -4 -20 -15 -45
-11 -25 -17 -45 -15 -45 2 0 -7 -25 -20 -55 -14 -30 -25 -57 -25 -60 0 -3 -6
-20 -13 -38 -8 -17 -20 -50 -28 -72 -8 -22 -16 -42 -19 -45 -8 -7 -53 -141
-53 -157 0 -7 -5 -13 -10 -13 -6 0 -8 -2 -5 -6 3 -3 -7 -45 -22 -94 -15 -49
-25 -91 -22 -94 3 -4 0 -6 -5 -6 -6 0 -10 -8 -8 -17 1 -10 -2 -27 -8 -38 -9
-18 -20 -56 -33 -113 -2 -13 -29 -96 -60 -185 -30 -89 -56 -166 -57 -172 -2
-5 -19 -44 -39 -86 -41 -89 -87 -158 -187 -284 -160 -200 -219 -259 -346 -343
-38 -25 -72 -49 -75 -52 -6 -8 -38 -25 -192 -101 -90 -45 -121 -65 -133 -88
-38 -74 -5 -136 115 -216 61 -42 152 -84 195 -91 33 -6 188 -5 215 1 14 3 40
8 59 11 18 3 43 7 54 10 64 12 186 25 282 29 61 3 128 8 150 11 39 4 494 15
630 15 39 0 197 -2 353 -3 387 -5 439 2 485 64 15 20 18 35 13 63 -7 37 -19
51 -155 180 -90 85 -103 126 -104 335 -1 223 17 328 84 475 13 28 23 52 24 55
0 3 3 10 6 15 7 11 52 145 54 160 1 6 3 12 4 15 2 3 4 14 6 25 2 11 6 30 8 42
7 28 18 138 22 211 9 188 17 247 34 262 15 13 36 41 66 89 6 9 22 34 36 56 32
49 61 136 65 190 6 101 3 361 -6 428 -11 89 -4 165 19 195 16 21 16 19 13 -55
-3 -73 0 -86 43 -194 33 -82 57 -127 83 -153 37 -39 114 -96 129 -96 8 0 133
-127 165 -168 45 -56 87 -10 94 103 3 51 12 92 26 119 11 22 20 41 18 41 -6 0
64 120 72 123 4 2 8 12 8 23 0 10 4 19 10 19 5 0 12 11 16 25 3 14 10 25 15
25 5 0 9 7 9 15 0 8 5 15 10 15 6 0 10 5 10 11 0 12 82 140 105 162 8 9 15 20
15 25 0 5 7 15 15 22 8 7 13 16 10 20 -3 4 2 10 10 14 8 3 15 12 15 21 0 8 4
15 9 15 5 0 14 14 21 30 7 17 16 30 21 30 5 0 9 6 9 13 0 7 11 24 25 39 14 15
25 32 25 38 0 5 5 10 10 10 6 0 10 5 10 10 0 9 33 63 142 230 16 25 43 74 61
110 28 57 32 75 32 145 0 72 -3 95 -19 160 -8 36 -28 120 -31 135 -2 8 -8 28
-14 43 -6 16 -9 33 -5 38 3 5 0 9 -5 9 -6 0 -11 6 -11 14 0 12 -26 82 -56 151
-7 17 -15 42 -17 55 -3 14 -10 36 -15 50 -19 47 -25 65 -24 73 1 4 -3 7 -8 7
-5 0 -9 3 -8 8 1 4 -6 25 -16 47 -44 100 -63 169 -71 260 -4 46 -8 77 -19 130
-2 11 -25 72 -51 135 -25 63 -48 120 -49 125 -14 60 -33 108 -99 245 -53 109
-68 162 -83 285 -3 27 -7 61 -9 75 -17 111 -17 109 -39 201 -15 64 -20 98 -31
194 -9 84 -15 129 -19 155 -2 14 -7 43 -10 65 -7 47 -14 80 -16 80 -1 0 -3 9
-5 20 -2 11 -12 54 -23 95 -11 41 -23 93 -26 115 -12 88 -23 118 -116 340 -7
17 -31 88 -35 105 -1 3 -7 18 -14 34 -13 31 -28 97 -36 151 -9 65 -14 100 -20
150 -4 28 -9 61 -11 75 -3 14 -7 45 -10 70 -2 24 -12 72 -21 105 -8 33 -17 71
-19 84 -4 32 -63 151 -75 151 -6 0 -7 6 -3 13 4 6 4 9 -1 5 -4 -4 -19 2 -33
12 -13 11 -33 20 -42 20 -10 0 -25 11 -34 25 -9 14 -27 27 -41 31 -14 3 -25
10 -25 15 0 12 -57 11 -65 -1z"/>
<path d="M8092 10974 c-7 -8 -17 -12 -22 -9 -5 3 -19 -8 -31 -24 -12 -16 -31
-32 -43 -35 -31 -9 -70 -47 -85 -84 -7 -17 -18 -32 -24 -32 -6 0 -8 -3 -4 -6
3 -3 2 -17 -3 -30 -6 -14 -12 -35 -14 -47 -3 -12 -14 -67 -26 -122 -12 -55
-23 -116 -25 -135 -7 -61 -15 -124 -21 -155 -3 -16 -7 -41 -9 -55 -12 -93 -57
-252 -77 -277 -6 -7 -8 -13 -5 -13 6 0 -27 -83 -76 -191 -23 -51 -32 -84 -41
-149 -3 -21 -34 -156 -52 -225 -2 -11 -7 -31 -9 -45 -2 -14 -6 -36 -9 -50 -5
-27 -13 -80 -22 -145 -10 -71 -12 -89 -19 -154 -4 -35 -11 -75 -16 -87 -4 -13
-6 -24 -4 -24 2 0 0 -11 -5 -24 -5 -13 -11 -41 -15 -63 -3 -21 -8 -50 -10 -63
-5 -22 -10 -68 -20 -165 -2 -16 -4 -30 -5 -30 -1 0 -4 -13 -6 -30 -4 -28 -18
-102 -29 -150 -2 -11 -13 -51 -25 -90 -20 -67 -23 -79 -36 -135 -3 -14 -6 -29
-8 -35 -2 -5 -7 -28 -11 -50 -12 -55 -12 -54 -15 -60 -1 -3 -3 -8 -4 -12 -8
-33 -70 -182 -139 -333 -25 -56 -38 -87 -43 -105 -1 -5 -22 -57 -47 -115 -46
-108 -59 -140 -62 -152 -2 -5 -3 -9 -5 -10 -1 -2 -3 -10 -5 -19 -1 -8 -12 -35
-24 -59 -11 -24 -21 -49 -21 -56 0 -7 -3 -14 -7 -16 -7 -2 -44 -71 -48 -88 -1
-3 -9 -23 -18 -44 -17 -39 -65 -208 -72 -255 -4 -24 -18 -64 -42 -120 -8 -18
-17 -48 -20 -65 -3 -17 -9 -36 -14 -42 -5 -6 -11 -21 -13 -35 -3 -13 -5 -25
-7 -26 -1 -2 -2 -7 -3 -12 0 -5 -4 -13 -8 -17 -5 -4 -8 -16 -8 -26 0 -10 -4
-18 -8 -18 -5 0 -9 -6 -9 -12 0 -7 -17 -74 -37 -148 -45 -164 -40 -146 -55
-200 -6 -25 -16 -54 -21 -65 -8 -19 -53 -159 -63 -200 -15 -56 -66 -224 -77
-250 -21 -51 -28 -68 -56 -145 -16 -41 -29 -77 -29 -80 -2 -15 -29 -86 -34
-90 -5 -4 -38 -88 -45 -115 -3 -9 -8 -23 -24 -65 -3 -8 -6 -17 -7 -20 -2 -5
-10 -27 -32 -80 -8 -19 -16 -42 -18 -50 -2 -8 -18 -53 -35 -100 -17 -47 -33
-92 -35 -100 -2 -8 -11 -43 -20 -77 -9 -35 -18 -71 -20 -80 -17 -85 -43 -172
-70 -238 -10 -22 -16 -42 -15 -44 1 -2 -2 -7 -7 -10 -17 -12 -115 -279 -127
-345 -3 -14 -7 -29 -10 -34 -3 -5 -7 -22 -10 -38 -3 -16 -22 -69 -42 -119 -19
-49 -38 -101 -40 -114 -3 -13 -12 -40 -21 -60 -9 -20 -17 -38 -18 -41 -1 -3
-7 -18 -13 -33 -7 -16 -12 -32 -12 -37 0 -5 -3 -10 -7 -12 -6 -2 -53 -125 -67
-173 -6 -21 -41 -90 -49 -96 -5 -3 -8 -9 -7 -13 0 -3 -8 -27 -20 -52 -11 -26
-20 -50 -20 -55 0 -4 -5 -20 -12 -36 -6 -15 -12 -32 -14 -38 -8 -27 -57 -154
-70 -183 -9 -18 -18 -45 -20 -60 -3 -14 -10 -32 -16 -39 -6 -7 -8 -13 -4 -13
4 0 0 -10 -8 -22 -8 -13 -17 -36 -20 -52 -3 -16 -11 -33 -18 -38 -7 -4 -10 -8
-7 -8 8 0 -47 -151 -88 -240 -17 -36 -36 -83 -42 -105 -7 -22 -15 -47 -18 -55
-3 -8 -7 -19 -7 -25 -4 -28 -101 -252 -115 -265 -3 -3 -7 -11 -9 -19 -1 -7
-14 -52 -28 -100 -15 -47 -26 -92 -27 -98 0 -7 -4 -13 -9 -13 -4 0 -8 -5 -8
-11 0 -5 -11 -34 -24 -62 -59 -125 -58 -205 2 -337 45 -99 62 -162 66 -247 6
-99 9 -119 19 -129 4 -4 7 -15 7 -24 0 -9 15 -47 34 -86 29 -60 46 -100 52
-126 1 -5 3 -10 4 -13 1 -3 4 -9 5 -15 1 -5 4 -12 5 -15 1 -3 3 -8 5 -12 1 -5
6 -19 12 -33 6 -14 16 -56 22 -95 7 -40 25 -93 43 -125 17 -30 40 -73 52 -94
23 -44 91 -116 109 -117 7 0 23 -3 37 -7 35 -9 157 -8 205 1 22 4 51 15 65 24
33 21 80 75 80 91 0 6 5 12 11 12 5 0 7 5 4 10 -3 6 -1 10 6 10 7 0 10 3 7 6
-7 6 11 65 49 163 13 35 26 73 29 84 2 11 8 34 13 51 6 17 12 47 15 68 3 20
12 56 20 80 8 23 17 60 20 81 10 62 28 131 39 145 5 6 7 12 4 12 -7 0 26 96
47 135 19 37 106 225 106 230 0 2 4 14 9 27 5 13 9 26 10 30 1 4 7 22 12 40 6
18 12 47 15 65 2 17 8 43 14 57 5 14 7 26 4 26 -4 0 -1 7 6 15 6 8 9 19 5 25
-3 5 -1 10 4 10 6 0 11 5 11 11 0 5 11 35 25 65 14 30 25 57 25 60 0 3 8 18
18 32 21 31 59 149 78 247 2 11 6 29 8 40 9 42 37 108 70 169 28 51 45 94 62
159 1 4 3 9 4 12 9 17 21 60 20 69 -1 5 2 12 7 15 12 8 63 128 63 147 0 8 5
14 10 14 6 0 9 3 8 8 -1 4 4 24 11 45 7 21 14 44 15 50 1 7 8 22 14 35 7 12
10 22 6 22 -3 0 0 10 8 22 8 13 22 41 30 63 9 22 27 63 39 90 13 28 24 52 24
55 0 3 15 34 31 70 25 53 54 126 59 150 8 33 29 97 35 105 4 6 13 28 20 50 7
22 17 46 23 53 5 6 6 12 2 12 -4 0 -1 7 6 17 8 9 13 19 12 22 -2 5 12 68 22
99 3 7 5 14 5 17 1 3 8 28 17 57 8 29 17 58 18 63 13 46 27 77 91 200 40 78
75 154 77 170 12 64 30 117 65 195 9 19 17 37 17 40 4 13 56 134 111 258 13
29 24 56 24 60 1 4 7 14 14 22 26 29 115 209 122 245 3 19 10 38 15 41 5 3 7
9 4 14 -3 5 -1 11 4 15 6 3 8 12 4 20 -3 8 -1 15 4 15 5 0 10 6 10 13 0 7 12
45 27 83 14 39 28 80 30 91 13 66 116 203 153 203 8 0 29 11 47 25 18 14 36
25 39 25 3 0 17 11 31 25 14 14 23 25 21 25 -2 0 6 11 18 24 12 13 41 73 65
132 40 103 43 114 40 198 -2 62 1 90 9 93 13 5 27 -81 25 -157 0 -25 -3 -146
-6 -270 -5 -234 2 -316 32 -379 22 -45 45 -84 53 -91 3 -3 21 -27 39 -55 19
-27 40 -54 46 -60 13 -10 22 -84 29 -240 7 -138 19 -238 36 -281 5 -14 8 -28
7 -32 -3 -15 17 -71 67 -192 52 -125 77 -192 81 -220 1 -8 5 -35 9 -60 11 -67
12 -316 2 -385 -15 -99 -43 -141 -162 -240 -49 -41 -95 -109 -95 -139 0 -38
32 -73 84 -91 46 -17 82 -19 351 -17 165 1 355 3 423 4 67 2 122 1 122 -2 0
-3 98 -5 218 -6 119 -1 249 -4 287 -8 39 -4 111 -9 160 -11 101 -5 178 -12
215 -19 14 -3 36 -8 50 -11 14 -3 41 -7 60 -10 19 -2 46 -7 60 -10 36 -8 180
-8 215 0 110 24 278 133 314 202 14 27 14 78 1 104 -12 22 -107 79 -132 79
-10 0 -18 4 -18 9 0 7 -34 21 -48 20 -1 0 -14 9 -29 21 -14 11 -32 20 -39 20
-8 0 -14 5 -14 10 0 6 -6 10 -14 10 -7 0 -19 7 -26 15 -7 8 -16 12 -21 9 -5
-3 -9 -2 -9 3 0 4 -25 24 -55 43 -30 19 -55 38 -55 43 0 4 -6 7 -14 7 -8 0
-17 7 -20 16 -4 9 -9 14 -12 11 -7 -6 -82 68 -149 148 -27 33 -54 63 -60 67
-5 4 -6 8 -1 8 5 0 0 8 -10 17 -11 10 -35 38 -54 63 -19 25 -38 47 -42 48 -5
2 -8 8 -8 14 0 6 -12 24 -26 41 -20 24 -121 212 -114 212 2 0 -18 55 -27 75
-4 8 -7 20 -8 25 0 6 -3 15 -6 20 -4 6 -14 35 -23 65 -10 30 -21 64 -26 75 -5
11 -12 34 -16 50 -4 17 -8 35 -10 40 -34 115 -73 253 -79 275 -2 8 -4 15 -5
15 -1 0 -3 9 -5 19 -4 20 -32 111 -42 136 -6 16 -11 32 -16 52 -1 7 -5 18 -9
23 -13 23 -137 346 -143 375 -2 8 -4 16 -5 18 -2 1 -4 7 -5 12 -1 6 -4 13 -5
18 -2 4 -4 12 -5 17 -1 6 -4 17 -8 25 -17 47 -42 116 -43 123 -1 4 -3 10 -4
15 -1 4 -2 10 -1 15 0 4 -4 7 -11 7 -6 0 -9 3 -6 6 4 3 0 22 -9 42 -21 51 -28
88 -39 202 -7 69 -11 105 -14 105 -2 0 -9 33 -14 70 -3 17 -8 46 -11 65 -4 19
-8 46 -10 60 -7 57 -19 118 -28 140 -5 13 -32 117 -42 163 -2 9 -6 21 -9 25
-2 4 -7 27 -11 52 -4 25 -9 48 -12 53 -2 4 -6 33 -9 63 -7 100 -24 142 -114
292 -12 19 -15 48 -14 111 3 93 -12 177 -36 206 -8 10 -14 20 -12 22 1 2 -12
31 -30 66 -73 142 -77 157 -72 290 2 67 5 140 5 162 1 48 -15 112 -45 180 -13
28 -29 65 -37 83 -8 17 -17 32 -21 32 -4 0 -5 7 -2 15 4 8 1 15 -7 15 -7 0
-10 3 -6 6 3 4 -3 24 -13 45 -11 21 -20 42 -20 47 0 5 -8 27 -17 48 -9 22 -18
48 -19 59 -2 11 -8 40 -15 65 -7 27 -11 118 -11 226 0 121 -4 201 -14 245 -20
90 -25 110 -27 123 -1 6 -5 13 -9 16 -3 3 -8 19 -11 37 -3 17 -8 36 -11 41 -3
5 -8 27 -11 48 -10 67 -12 79 -14 79 -1 0 -4 23 -6 50 -2 28 -6 68 -9 90 -3
22 -8 63 -11 90 -4 28 -8 138 -10 245 -2 107 -7 222 -11 255 -4 33 -7 72 -8
88 0 15 -4 27 -7 27 -10 0 -33 158 -31 205 5 107 4 234 -2 265 -4 19 -11 61
-17 92 -5 32 -12 70 -15 85 -16 87 -109 214 -167 228 -15 4 -30 11 -33 16 -8
14 -58 10 -72 -7z"/>
<path d="M4414 5827 c-27 -15 -66 -61 -90 -107 -29 -53 -86 -130 -97 -130 -6
0 -8 -3 -4 -6 3 -3 -12 -29 -34 -57 -22 -29 -42 -62 -45 -74 -4 -13 -10 -23
-15 -23 -5 0 -8 -3 -7 -7 1 -5 -8 -30 -21 -58 -13 -27 -30 -66 -39 -85 -9 -19
-18 -37 -21 -40 -4 -3 -14 -21 -23 -40 -33 -67 -91 -165 -102 -172 -6 -4 -8
-8 -4 -8 4 0 -6 -21 -22 -47 -17 -27 -36 -60 -42 -75 -7 -16 -16 -28 -19 -28
-4 0 -14 -12 -22 -27 -7 -16 -23 -44 -35 -65 -11 -20 -18 -39 -15 -42 4 -3 2
-6 -4 -6 -6 0 -16 -20 -23 -45 -7 -25 -17 -48 -21 -51 -5 -3 -9 -16 -9 -30 0
-13 -4 -24 -8 -24 -10 0 -11 -4 -16 -92 -6 -82 23 -171 86 -265 15 -23 28 -44
28 -48 0 -4 6 -13 14 -20 7 -7 26 -44 41 -82 43 -107 56 -130 86 -147 51 -30
91 -13 141 59 29 41 80 136 84 155 4 20 76 168 175 360 29 58 54 110 54 115 2
24 113 247 127 256 5 3 10 10 9 15 0 5 26 63 59 129 82 167 93 206 87 307 -2
46 -7 94 -10 108 -3 14 -8 36 -11 50 -4 20 -27 113 -40 165 -2 6 -8 23 -15 40
-38 93 -65 129 -108 146 -31 12 -43 11 -69 -4z"/>
<path d="M4882 4350 c-24 -15 -42 -40 -64 -88 -17 -37 -42 -92 -57 -122 -14
-30 -25 -58 -23 -62 1 -5 -2 -8 -8 -8 -5 0 -9 -3 -8 -7 1 -5 -4 -19 -12 -33
-7 -14 -13 -27 -13 -30 0 -3 -16 -39 -35 -80 -19 -41 -33 -76 -31 -76 2 -1 -3
-10 -12 -20 -9 -11 -22 -35 -29 -54 -8 -19 -25 -60 -38 -90 -14 -30 -25 -61
-25 -67 0 -7 -3 -13 -7 -13 -4 0 -7 -6 -7 -12 0 -7 -19 -51 -41 -98 -41 -88
-70 -155 -72 -168 -1 -4 -6 -13 -12 -19 -6 -7 -8 -13 -4 -13 4 0 -1 -14 -10
-31 -8 -17 -17 -38 -19 -47 -2 -10 -9 -30 -16 -47 -7 -16 -13 -33 -14 -37 -2
-5 -3 -9 -5 -10 -13 -17 -19 -136 -8 -178 4 -14 9 -35 12 -47 2 -12 21 -73 41
-135 20 -62 38 -120 40 -128 2 -8 10 -34 19 -57 8 -24 13 -43 9 -43 -3 0 -1
-6 5 -12 6 -7 10 -17 10 -21 0 -4 10 -28 22 -52 25 -51 63 -85 95 -85 29 0 69
32 91 73 49 94 106 210 108 220 1 7 12 31 24 55 12 23 19 42 15 42 -5 0 -3 4
2 8 12 8 78 143 132 267 19 44 44 99 55 122 11 24 21 49 22 55 2 7 9 27 15 43
7 17 14 37 16 45 2 8 4 16 5 18 2 1 3 5 4 10 1 4 7 17 14 28 6 12 8 24 5 28
-3 3 -1 6 5 6 7 0 12 6 12 14 0 8 7 22 16 30 8 9 13 16 10 16 -3 0 6 26 20 58
14 31 27 66 29 77 2 11 7 36 11 55 9 39 9 159 1 206 -6 36 -68 239 -98 324
-42 114 -69 165 -102 188 -41 27 -53 27 -95 2z"/>
</g>
</svg>
